<?xml version="1.0" standalone="no"?>
<!DOCTYPE svg PUBLIC "-//W3C//DTD SVG 1.1//EN" "http://www.w3.org/Graphics/SVG/1.1/DTD/svg11.dtd" >
<svg xmlns="http://www.w3.org/2000/svg">
<metadata></metadata>
<defs>
<font id="din_alternateregular" horiz-adv-x="1085" >
<font-face units-per-em="2048" ascent="1638" descent="-410" />
<missing-glyph horiz-adv-x="510" />
<glyph horiz-adv-x="2048" />
<glyph horiz-adv-x="2048" />
<glyph unicode="&#xd;" horiz-adv-x="0" />
<glyph unicode=" "  horiz-adv-x="510" />
<glyph unicode="&#x09;" horiz-adv-x="510" />
<glyph unicode="&#xa0;" horiz-adv-x="510" />
<glyph unicode="!" horiz-adv-x="647" d="M252 96q0 44 30.5 73.5t73.5 29.5q20 0 40.5 -8t33.5 -21t21 -33.5t8 -40.5q0 -44 -29 -73t-74 -29q-43 0 -73.5 29.5t-30.5 72.5zM270 1458h172l-26 -1048h-119z" />
<glyph unicode="&#x22;" horiz-adv-x="866" d="M180 1110v348h162v-348h-162zM524 1110v348h162v-348h-162z" />
<glyph unicode="#" horiz-adv-x="1337" d="M158 465v131h204l48 289h-189v135h207l70 440h153l-71 -440h325l70 440h149l-69 -440h178v-135h-197l-47 -289h182v-131h-202l-74 -465h-152l74 465h-328l-71 -465h-152l74 465h-182zM512 596h326l47 289h-326z" />
<glyph unicode="$" horiz-adv-x="1221" d="M86 180l107 107q79 -79 162.5 -116t189.5 -42v543l-41 4q-79 7 -147.5 38t-118.5 72q-113 101 -113 273q0 115 49.5 204t141.5 141.5t221 63.5v183h122v-183q117 -6 207 -44t174 -113l-100 -101q-64 57 -130.5 87t-156.5 36v-530l64 -10q67 -12 114 -25.5t85 -33 t65 -44.5q60 -50 92.5 -123.5t32.5 -165.5q0 -88 -30.5 -159.5t-90 -125.5t-142 -85.5t-184.5 -38.5v-225h-122v221q-144 6 -249 51.5t-202 140.5zM279 1065q0 -112 65 -168q75 -62 201 -80v516q-86 -8 -145 -42t-90 -93t-31 -133zM653 129q139 9 218 80t79 188 q0 121 -71 183q-43 38 -87 50t-139 25v-526z" />
<glyph unicode="%" horiz-adv-x="1706" d="M133 981v215q0 82 35.5 145t98.5 97.5t143 34.5q121 0 198.5 -76.5t77.5 -200.5v-215q0 -122 -78 -198t-198 -76q-121 0 -199 75.5t-78 198.5zM250 985q0 -176 160 -176q81 0 120 46t39 130v207q0 85 -39 131.5t-120 46.5q-160 0 -160 -178v-207zM451 0l684 1458h122 l-684 -1458h-122zM1022 262v215q0 63 20 113t58 88t89 57t109 19q120 0 198.5 -76.5t78.5 -200.5v-215q0 -124 -78.5 -200t-198.5 -76q-79 0 -142 34t-98.5 97t-35.5 145zM1139 266q0 -178 159 -178q81 0 120.5 47t39.5 131v207q0 85 -39 131.5t-121 46.5q-159 0 -159 -178 v-207z" />
<glyph unicode="&#x26;" horiz-adv-x="1513" d="M158 412q0 146 80.5 240t234.5 196q-74 89 -116 160.5t-42 156.5q0 86 41.5 155.5t115 109.5t165.5 40q89 0 162 -40.5t114 -111t41 -155.5q0 -148 -161 -260q-18 -12 -51.5 -34.5t-57.5 -39.5l373 -448q45 68 63 140.5t19 193.5h147q-3 -288 -135 -447l223 -268h-194 l-131 160q-184 -172 -431 -172q-138 0 -242.5 52.5t-161 150t-56.5 221.5zM309 416q0 -85 39 -151.5t109 -103t159 -36.5q188 0 345 141l-402 484q-85 -59 -134 -100t-82.5 -99t-33.5 -135zM469 1167q0 -47 28 -97.5t103 -141.5q14 9 39.5 26.5t38.5 26.5q63 44 97 84.5 t34 97.5q0 49 -22.5 89t-62 62.5t-87.5 22.5q-75 0 -121.5 -47.5t-46.5 -122.5z" />
<glyph unicode="'" horiz-adv-x="522" d="M180 1110v348h162v-348h-162z" />
<glyph unicode="(" horiz-adv-x="610" d="M188 195v1069q0 130 43 211q26 46 53.5 77.5t94.5 98.5l100 -101q-54 -54 -74 -77.5t-36 -55.5q-33 -64 -33 -166v-1044q0 -102 33 -166q14 -28 29.5 -47.5t37.5 -41.5t43 -44l-100 -101q-51 51 -69.5 70.5t-40.5 48t-38 58.5q-26 49 -34.5 100t-8.5 111z" />
<glyph unicode=")" horiz-adv-x="610" d="M127 -88q30 30 46.5 46t35 38.5t31.5 48.5q28 57 28 162v1044q0 105 -28 162q-15 32 -41 60.5t-72 72.5l104 105q67 -67 96.5 -100.5t51.5 -75.5q26 -46 33.5 -96t7.5 -115v-1069q0 -137 -41 -211q-24 -45 -52.5 -77.5t-95.5 -99.5z" />
<glyph unicode="*" horiz-adv-x="971" d="M137 967l246 133l-246 135l60 98l237 -145l-8 280h119l-8 -280l239 145l58 -98l-246 -135l246 -133l-58 -101l-239 146l8 -281h-119l8 281l-237 -146z" />
<glyph unicode="+" horiz-adv-x="1069" d="M106 479v137h361v357h137v-357h359v-137h-359v-360h-137v360h-361z" />
<glyph unicode="," horiz-adv-x="541" d="M180 180h180v-313l-180 -162v475z" />
<glyph unicode="-" horiz-adv-x="872" d="M156 483v138h561v-138h-561z" />
<glyph unicode="." horiz-adv-x="557" d="M162 111q0 48 35 82t82 34q31 0 57.5 -16t42.5 -42.5t16 -57.5q0 -47 -34 -82t-82 -35q-47 0 -82 35t-35 82z" />
<glyph unicode="/" horiz-adv-x="727" d="M0 -152l584 1762h145l-584 -1762h-145z" />
<glyph unicode="0" horiz-adv-x="1069" d="M135 389v445q0 88 29.5 162.5t86 129t128.5 82t156 27.5q85 0 157 -28t127 -81t85 -128.5t30 -163.5v-445q0 -119 -51.5 -210t-143.5 -141t-204 -50t-204.5 50.5t-144 141t-51.5 209.5zM283 397q0 -79 30 -143t86.5 -99.5t135.5 -35.5q78 0 134.5 35.5t86.5 99.5t30 143 v428q0 80 -29.5 143.5t-86 99.5t-135.5 36q-80 0 -136.5 -36t-86 -99.5t-29.5 -143.5v-428z" />
<glyph unicode="1" horiz-adv-x="764" d="M104 819v168l273 236h147v-1223h-147v1059z" />
<glyph unicode="2" horiz-adv-x="1036" d="M84 0v131l514 496q139 136 139 274q0 106 -70 175t-180 69q-105 0 -178 -69t-73 -179h-148q0 107 51.5 193.5t143.5 136t204 49.5q117 0 208 -49t140.5 -134t49.5 -190q0 -102 -49 -188t-140 -174l-417 -410h643v-131h-838z" />
<glyph unicode="3" horiz-adv-x="1055" d="M78 133h147q10 -129 89 -190.5t192 -61.5q80 0 143.5 33.5t100 96.5t36.5 151q0 137 -69.5 209.5t-216.5 72.5h-29v129h29q131 0 195.5 69t64.5 196q0 64 -18.5 113.5t-54 84t-82 51.5t-99.5 17q-77 0 -133 -28.5t-88.5 -83t-40.5 -130.5h-148q9 117 64 200.5t145.5 128 t200.5 44.5q117 0 208.5 -49.5t142 -139t50.5 -206.5q0 -236 -196 -324q223 -83 223 -356q0 -130 -56.5 -223.5t-154.5 -141t-217 -47.5q-182 0 -300.5 98.5t-127.5 286.5z" />
<glyph unicode="4" horiz-adv-x="1108" d="M74 61v136l540 1091h158l-543 -1091h465v419h146v-419h186v-136h-186v-313h-146v313h-620z" />
<glyph unicode="5" horiz-adv-x="1059" d="M125 109h147q30 -228 248 -228q112 0 180 68q37 37 53.5 84t21.5 94.5t5 118.5q0 161 -51 257.5t-194 96.5q-94 0 -156.5 -38t-85.5 -105h-133v766h737v-131h-604v-463q90 100 262 100q160 0 252 -92q71 -71 96 -169t25 -222q0 -133 -23 -224.5t-94 -162.5 q-109 -109 -291 -109q-94 0 -169.5 28.5t-123.5 76.5q-90 93 -102 254z" />
<glyph unicode="6" horiz-adv-x="1079" d="M104 438q0 180 107 367l389 686h156l-369 -633q40 21 82 30t96 9q94 0 170 -32.5t129 -91.5t82 -141.5t29 -180.5q0 -130 -53 -237t-152.5 -166.5t-228.5 -59.5q-131 0 -230.5 55.5t-153 159t-53.5 235.5zM252 442q0 -149 78.5 -239t208.5 -90t209 90t79 239 q0 71 -19 130.5t-55 105t-90 71t-124 25.5q-87 0 -151.5 -41t-100 -116t-35.5 -175z" />
<glyph unicode="7" horiz-adv-x="1028" d="M92 862v361h864v-131l-596 -1344h-155l594 1344h-561v-230h-146z" />
<glyph unicode="8" horiz-adv-x="1102" d="M121 401q0 230 219 355q-91 53 -142 134.5t-51 188.5q0 83 30 156t84.5 125t129 81t160.5 29t160.5 -29t129 -81.5t84 -124.5t29.5 -156q0 -110 -50.5 -190.5t-141.5 -132.5q219 -125 219 -355q0 -118 -56.5 -213.5t-155.5 -147.5t-218 -52t-218 52t-155.5 147.5 t-56.5 213.5zM268 403q0 -119 81.5 -201.5t201.5 -82.5q59 0 110 21t90.5 60.5t61 91.5t21.5 111q0 78 -37.5 144t-102.5 103.5t-143 37.5q-77 0 -142.5 -37.5t-103 -103t-37.5 -144.5zM295 1077q0 -75 32.5 -134.5t91.5 -92.5t132 -33q72 0 131 33t92 92.5t33 134.5 q0 74 -33 134t-91.5 94t-131.5 34q-74 0 -132.5 -34t-91 -94t-32.5 -134z" />
<glyph unicode="9" horiz-adv-x="1079" d="M104 772q0 97 29.5 182t87.5 149.5t138.5 98t179.5 33.5q131 0 230.5 -56t152.5 -159t53 -236q0 -179 -107 -366l-389 -686h-155l368 633q-74 -39 -178 -39q-183 0 -296.5 125.5t-113.5 320.5zM252 780q0 -91 33.5 -167t99 -120t156.5 -44q87 0 151.5 41.5t99.5 116 t35 173.5q0 100 -35 174.5t-99.5 115t-151.5 40.5q-129 0 -209 -91t-80 -239z" />
<glyph unicode=":" horiz-adv-x="612" d="M217 111q0 48 35 82t82 34q48 0 82.5 -33.5t34.5 -82.5q0 -48 -34.5 -82.5t-82.5 -34.5q-47 0 -82 35t-35 82zM217 707q0 48 35 82t82 34q48 0 82.5 -33.5t34.5 -82.5q0 -48 -34.5 -82.5t-82.5 -34.5q-47 0 -82 35t-35 82z" />
<glyph unicode=";" horiz-adv-x="608" d="M217 707q0 48 35 82t82 34q48 0 82.5 -33.5t34.5 -82.5q0 -48 -34.5 -82.5t-82.5 -34.5q-47 0 -82 35t-35 82zM244 180h180v-313l-180 -162v475z" />
<glyph unicode="&#x3c;" horiz-adv-x="2103" d="M236 430v193l745 -748v1616h143v-1616l746 748v-193l-817 -817z" />
<glyph unicode="=" horiz-adv-x="1069" d="M106 309v135h857v-135h-857zM106 655v138h857v-138h-857z" />
<glyph unicode="&#x3e;" horiz-adv-x="2103" d="M236 481v193l817 817l817 -817v-193l-746 748v-1616h-143v1616z" />
<glyph unicode="?" horiz-adv-x="1018" d="M156 1096q0 78 29 146.5t81 119.5t122.5 79.5t152.5 28.5t151.5 -27t120.5 -75.5t81 -117t30 -152.5q0 -66 -24 -124.5t-69 -123.5l-167 -242q-37 -55 -37 -119v-79h-148v82q0 58 16 102t48 90l166 240q32 47 49.5 86.5t17.5 87.5q0 66 -29.5 121.5t-83 87.5t-122.5 32 q-106 0 -172 -71.5t-66 -171.5h-147zM449 96q0 45 29 74t73 29q21 0 40.5 -8t32.5 -21t21 -33.5t8 -40.5q0 -44 -29 -73t-73 -29t-73 29t-29 73z" />
<glyph unicode="@" horiz-adv-x="1460" d="M147 328v688q0 212 115 330q113 114 316 114h303q100 0 179 -28.5t136 -85.5q117 -117 117 -330v-1018l-142 2v113q-50 -65 -115.5 -96t-158.5 -31q-86 0 -159 33t-120 92q-51 64 -70.5 148t-19.5 228q0 97 8.5 164.5t27 119t48.5 91.5q46 61 120.5 94t162.5 33 q170 0 274 -129v160q0 82 -18.5 136.5t-60.5 96.5q-82 82 -228 82h-266q-142 0 -223 -82q-32 -30 -49.5 -62t-25 -72.5t-7.5 -98.5v-690q0 -69 9.5 -109t35 -72.5t72.5 -66.5l-101 -100q-94 69 -127 139.5t-33 206.5zM674 487q0 -108 18.5 -190t73 -133t156.5 -51t156.5 51 t72.5 133t18 190t-18.5 190.5t-72.5 133.5t-156 51t-156.5 -51t-73 -133.5t-18.5 -190.5z" />
<glyph unicode="A" horiz-adv-x="1251" d="M25 0l536 1458h131l535 -1458h-166l-117 330h-637l-117 -330h-165zM354 465h545l-270 770z" />
<glyph unicode="B" horiz-adv-x="1368" d="M211 0v1458h549q94 0 175.5 -27t136.5 -76.5t86.5 -122.5t31.5 -163q0 -76 -28 -140.5t-77 -110.5t-110 -68q71 -26 124 -75t83 -119t30 -153q0 -131 -54 -221t-152 -136t-228 -46h-567zM367 139h397q135 0 214 73t79 196q0 82 -35.5 141.5t-102 92t-155.5 32.5h-397 v-535zM367 813h381q128 0 207 64.5t79 189.5q0 126 -78.5 189t-207.5 63h-381v-506z" />
<glyph unicode="C" horiz-adv-x="1202" d="M156 729q0 187 6.5 279.5t35.5 168.5t95 142q151 151 373 151q127 0 223.5 -45.5t185.5 -132.5l-104 -104q-77 76 -143 109.5t-162 33.5q-74 0 -139 -26.5t-113 -75.5q-45 -45 -67.5 -103.5t-29 -144t-6.5 -252.5q0 -238 18 -334t85 -166q99 -102 252 -102 q66 0 117.5 16.5t92.5 45.5t95 81l104 -104q-92 -89 -187 -133.5t-222 -44.5q-222 0 -373 151q-53 54 -79.5 106.5t-39.5 122.5t-15.5 143.5t-2.5 217.5z" />
<glyph unicode="D" horiz-adv-x="1378" d="M211 0v1458h500q233 0 368 -135q64 -63 95.5 -145.5t40 -170t8.5 -202.5v-60v-61q0 -119 -8.5 -213.5t-40 -184t-95.5 -151.5q-66 -66 -161 -100.5t-207 -34.5h-500zM367 139h317q183 0 287 107q64 69 80 190t16 309q0 119 -5 197t-25.5 149.5t-65.5 120.5 q-104 107 -287 107h-317v-1180z" />
<glyph unicode="E" horiz-adv-x="1229" d="M211 0v1458h905v-139h-749v-514h639v-139h-639v-527h749v-139h-905z" />
<glyph unicode="F" horiz-adv-x="1188" d="M211 0v1458h905v-139h-749v-537h639v-139h-639v-643h-156z" />
<glyph unicode="G" horiz-adv-x="1321" d="M156 729q0 187 6.5 279.5t35.5 168.5t95 142q151 151 373 151q90 0 165 -21.5t138.5 -64.5t132.5 -112l-105 -105q-61 61 -105.5 94t-100.5 51.5t-125 18.5q-72 0 -137.5 -26.5t-114.5 -77.5q-67 -69 -85 -164.5t-18 -333.5t18 -334t85 -166q99 -102 252 -102 q81 0 152.5 32.5t121.5 92.5q80 95 80 266v109h-354v137h510v-232q0 -125 -29.5 -215t-95.5 -161q-74 -80 -173 -124t-212 -44q-222 0 -373 151q-53 54 -79.5 106.5t-39.5 122.5t-15.5 143.5t-2.5 217.5z" />
<glyph unicode="H" horiz-adv-x="1425" d="M211 0v1458h156v-653h692v653h155v-1458h-155v666h-692v-666h-156z" />
<glyph unicode="I" horiz-adv-x="578" d="M211 0v1458h156v-1458h-156z" />
<glyph unicode="J" horiz-adv-x="1026" d="M47 119l105 104q50 -48 99 -72t130 -24q143 0 221 88t78 248v995h156v-1016q0 -136 -58 -240t-161 -159t-236 -55q-203 0 -334 131z" />
<glyph unicode="K" horiz-adv-x="1331" d="M211 0v1458h156v-837l680 837h190l-459 -563l525 -895h-185l-444 776l-307 -368v-408h-156z" />
<glyph unicode="L" horiz-adv-x="1174" d="M211 0v1458h156v-1319h745v-139h-901z" />
<glyph unicode="M" horiz-adv-x="1671" d="M211 0v1458h156l475 -1034l463 1034h155v-1458h-155v1108l-400 -879h-133l-405 879v-1108h-156z" />
<glyph unicode="N" horiz-adv-x="1499" d="M211 0v1458h147l775 -1165v1165h155v-1458h-147l-774 1169v-1169h-156z" />
<glyph unicode="O" horiz-adv-x="1331" d="M156 729q0 187 6.5 279.5t35.5 168.5t95 142q151 151 373 151q221 0 372 -151q65 -63 95 -140.5t36.5 -170t6.5 -279.5t-6.5 -279.5t-36.5 -170t-95 -140.5q-151 -151 -372 -151q-222 0 -373 151q-53 54 -79.5 106.5t-39.5 122.5t-15.5 143.5t-2.5 217.5zM311 729 q0 -237 18 -332.5t85 -165.5q49 -49 114.5 -76.5t137.5 -27.5q71 0 137 27.5t115 76.5q35 37 55.5 77t30.5 93.5t13 121t3 206.5q0 140 -3 208t-13 121.5t-30.5 93.5t-55.5 75q-49 50 -115 77t-137 27q-72 0 -137.5 -26.5t-114.5 -77.5q-67 -69 -85 -164.5t-18 -333.5z" />
<glyph unicode="P" horiz-adv-x="1290" d="M211 0v1458h543q99 0 182 -29.5t143.5 -87t92.5 -135t32 -176.5t-32 -177t-92.5 -135.5t-145 -87.5t-180.5 -30h-387v-600h-156zM367 739h372q92 0 162 33t109 99t39 159t-39 159t-109.5 98t-161.5 32h-372v-580z" />
<glyph unicode="Q" horiz-adv-x="1329" d="M156 729q0 187 6.5 279.5t35.5 168.5t95 142q151 151 373 151q221 0 372 -151q65 -63 95 -140.5t36.5 -170t6.5 -279.5q0 -170 -5 -257t-26.5 -158.5t-69.5 -131.5l160 -159l-94 -95l-162 162q-134 -102 -313 -102q-222 0 -373 151q-53 54 -79.5 106.5t-39.5 122.5 t-15.5 143.5t-2.5 217.5zM311 729q0 -237 18 -332.5t85 -165.5q49 -49 114.5 -76.5t137.5 -27.5q114 0 206 70l-184 184l94 94l179 -178q37 59 48 148t11 284q0 140 -3 208t-13 121.5t-30.5 93.5t-55.5 75q-49 50 -115 77t-137 27q-72 0 -137.5 -26.5t-114.5 -77.5 q-67 -69 -85 -164.5t-18 -333.5z" />
<glyph unicode="R" horiz-adv-x="1343" d="M211 0v1458h559q126 0 224.5 -49t153 -141.5t54.5 -214.5q0 -157 -87 -259.5t-230 -131.5l346 -662h-182l-332 647h-350v-647h-156zM367 784h389q84 0 150.5 29.5t103.5 89.5t37 148q0 130 -79 199t-212 69h-389v-535z" />
<glyph unicode="S" horiz-adv-x="1204" d="M86 180l107 107q59 -59 119 -94.5t126.5 -50.5t151.5 -15q161 0 252.5 72t91.5 198q0 57 -18 106t-52 77q-33 30 -71 43.5t-119 25.5l-170 27q-174 28 -268 110q-111 99 -111 273q0 121 56 215t162.5 145t248.5 51q138 0 238.5 -36.5t195.5 -122.5l-100 -101 q-69 63 -149.5 94t-190.5 31q-95 0 -164.5 -33.5t-106 -94t-36.5 -142.5q0 -112 65 -168q69 -60 197 -80l159 -24q96 -14 158.5 -38.5t108.5 -64.5q123 -103 123 -289q0 -126 -62.5 -219.5t-176 -143.5t-265.5 -50q-110 0 -197 19.5t-160.5 61.5t-142.5 111z" />
<glyph unicode="T" horiz-adv-x="1122" d="M61 1319v139h1000v-139h-422v-1319h-156v1319h-422z" />
<glyph unicode="U" horiz-adv-x="1399" d="M190 481v977h156v-964q0 -111 43.5 -193.5t124 -128t184.5 -45.5q105 0 186 45.5t125 129.5t44 192v964h155v-977q0 -109 -37.5 -198.5t-105.5 -155.5t-163 -102.5t-204 -36.5q-108 0 -201.5 36t-163.5 102.5t-106.5 156t-36.5 198.5z" />
<glyph unicode="V" horiz-adv-x="1118" d="M16 1458h164l379 -1179l379 1179h164l-479 -1458h-127z" />
<glyph unicode="W" horiz-adv-x="1749" d="M33 1458h166l284 -1175l322 1175h139l322 -1175l284 1175h166l-373 -1458h-145l-324 1167l-323 -1167h-145z" />
<glyph unicode="X" horiz-adv-x="1128" d="M31 0l446 748l-418 710h181l323 -575l324 575h180l-420 -710l451 -748h-180l-355 612l-356 -612h-176z" />
<glyph unicode="Y" horiz-adv-x="1053" d="M16 1458h168l344 -698l340 698h168l-430 -856v-602h-155v602z" />
<glyph unicode="Z" horiz-adv-x="1139" d="M117 0v147l729 1172h-701v139h877v-131l-735 -1188h735v-139h-905z" />
<glyph unicode="[" horiz-adv-x="641" d="M188 -152v1762h363v-131h-215v-1499h215v-132h-363z" />
<glyph unicode="\" horiz-adv-x="727" d="M0 1604h145l582 -1756h-145z" />
<glyph unicode="]" horiz-adv-x="641" d="M90 -25h221v1508h-221v127h363v-1762h-363v127z" />
<glyph unicode="^" horiz-adv-x="1100" d="M147 846l336 624h135l334 -624h-151l-250 467l-252 -467h-152z" />
<glyph unicode="_" horiz-adv-x="1100" d="M0 -233h1100v-105h-1100v105z" />
<glyph unicode="`" horiz-adv-x="1024" d="M256 1530h176l180 -313h-135z" />
<glyph unicode="a" horiz-adv-x="1077" d="M104 285q0 135 90.5 212.5t258.5 77.5h303v97q0 113 -60.5 167t-197.5 54q-95 0 -151.5 -25.5t-102.5 -89.5l-101 92q43 56 95 89.5t115.5 47t146.5 13.5q104 0 179 -21.5t125 -64t74.5 -104t24.5 -146.5v-684h-147v96q-61 -61 -126 -84.5t-165 -23.5q-102 0 -170 21.5 t-115 70.5q-76 76 -76 205zM248 287q0 -87 56 -129.5t175 -42.5q76 0 129 12.5t97 54.5q51 49 51 174v109h-283q-225 0 -225 -178z" />
<glyph unicode="b" horiz-adv-x="1116" d="M184 0v1458h148v-567q57 73 125 101t159 28q75 0 141 -23.5t105 -64.5q70 -68 96.5 -178.5t26.5 -249.5t-26.5 -249.5t-96.5 -178.5q-39 -39 -105 -63.5t-141 -24.5q-59 0 -107 11.5t-94.5 42.5t-82.5 79v-121h-148zM332 504q0 -177 52 -281t202 -104t201 103t51 282 q0 178 -51 281.5t-201 103.5q-149 0 -201.5 -104.5t-52.5 -280.5z" />
<glyph unicode="c" horiz-adv-x="1004" d="M129 504q0 166 58 283t159 175t229 58q107 0 181.5 -33.5t150.5 -116.5l-100 -94q-56 62 -107 87.5t-125 25.5q-153 0 -233 -115q-35 -49 -50.5 -112.5t-15.5 -157.5q0 -93 15.5 -156.5t50.5 -114.5q81 -114 233 -114q72 0 122.5 25.5t109.5 88.5l100 -96 q-76 -82 -151 -115.5t-181 -33.5q-94 0 -176.5 33t-142.5 97.5t-93.5 162t-33.5 223.5z" />
<glyph unicode="d" horiz-adv-x="1116" d="M131 504q0 304 123 428q88 88 246 88q92 0 159 -28t125 -101v567h148v-1458h-146v121q-38 -51 -84 -80.5t-95 -41t-107 -11.5q-158 0 -246 88q-123 123 -123 428zM279 504q0 -177 51.5 -281t201.5 -104q149 0 200.5 103t51.5 282q0 178 -51 281.5t-201 103.5 q-149 0 -201 -105t-52 -280z" />
<glyph unicode="e" d="M129 504q0 122 28.5 217t82.5 162t131 102t172 35q128 0 222 -59.5t142.5 -170.5t48.5 -258v-67h-680q0 -166 77.5 -257t219.5 -91q84 0 143 26t122 88l100 -88q-82 -82 -163.5 -118.5t-205.5 -36.5q-133 0 -232.5 55t-153.5 171t-54 290zM276 575h533q-5 106 -31 168 q-28 69 -92.5 110.5t-142.5 41.5q-79 0 -142.5 -40.5t-93.5 -111.5q-24 -61 -31 -168z" />
<glyph unicode="f" horiz-adv-x="643" d="M88 889v112h129v191q0 118 66 194t190 76h107v-127h-80q-135 0 -135 -147v-187h215v-112h-215v-889h-148v889h-129z" />
<glyph unicode="g" horiz-adv-x="1112" d="M131 512q0 138 26.5 244t96.5 176q88 88 246 88q91 0 157.5 -28t124.5 -103v119h146v-1039q0 -94 -28 -172t-83 -137t-134.5 -91t-174.5 -32q-53 0 -99 7.5t-87.5 24t-79 42.5t-76.5 61l96 95q40 -35 72.5 -57t74 -33t95.5 -11q139 0 207.5 85.5t68.5 223.5v158 q-38 -49 -83.5 -78.5t-93 -41t-105.5 -11.5q-75 0 -138 24t-106 66q-49 50 -75.5 114t-37 142t-10.5 164zM279 512q0 -106 19 -190t74 -135.5t158 -51.5q150 0 200 101.5t50 275.5t-50 275.5t-200 101.5q-103 0 -158 -51.5t-74 -135.5t-19 -190z" />
<glyph unicode="h" horiz-adv-x="1151" d="M184 0v1458h148v-561q108 123 282 123q112 0 194 -45.5t125.5 -130t43.5 -197.5v-647h-148v623q0 87 -29.5 146.5t-84.5 89.5t-131 30q-117 0 -184.5 -68.5t-67.5 -197.5v-623h-148z" />
<glyph unicode="i" horiz-adv-x="518" d="M158 1386q0 28 13.5 51t36.5 36.5t50 13.5q20 0 39.5 -8t33.5 -22.5t21.5 -32.5t7.5 -38q0 -27 -14 -50t-37 -36.5t-51 -13.5q-27 0 -50 13.5t-36.5 36.5t-13.5 50zM184 0v1008h148v-1008h-148z" />
<glyph unicode="j" horiz-adv-x="518" d="M-31 -324h80q74 0 104.5 36t30.5 112v1184h148v-1190q0 -78 -28 -139.5t-85.5 -96.5t-142.5 -35h-107v129zM158 1386q0 28 13.5 51t36.5 36.5t50 13.5q20 0 39.5 -8t33.5 -22.5t21.5 -32.5t7.5 -38q0 -27 -14 -50t-37 -36.5t-51 -13.5q-27 0 -50 13.5t-36.5 36.5 t-13.5 50z" />
<glyph unicode="k" horiz-adv-x="1098" d="M184 0v1458h148v-975l454 525h185l-342 -385l401 -623h-182l-320 516l-196 -225v-291h-148z" />
<glyph unicode="l" horiz-adv-x="608" d="M180 268v1190h148v-1184q0 -77 30 -112t105 -35h80v-127h-107q-127 0 -191.5 74t-64.5 194z" />
<glyph unicode="m" horiz-adv-x="1800" d="M184 0v1008h148v-111q106 123 284 123q106 0 184.5 -42t125.5 -126q118 168 331 168q162 0 261 -94q108 -106 108 -281v-645h-147v621q0 131 -65.5 199.5t-182.5 68.5q-74 0 -131.5 -30t-89 -86t-31.5 -136v-637h-148v621q0 66 -18 118t-48.5 84t-75.5 49t-105 17 q-117 0 -184.5 -69.5t-67.5 -198.5v-621h-148z" />
<glyph unicode="n" horiz-adv-x="1151" d="M184 0v1008h148v-111q55 62 125 92.5t157 30.5q164 0 258 -94q105 -102 105 -281v-645h-148v621q0 66 -18 118t-48.5 84t-75.5 49t-105 17q-116 0 -183 -69.5t-67 -198.5v-621h-148z" />
<glyph unicode="o" d="M131 504q0 133 26 230.5t97 170.5q115 115 289 115q175 0 288 -115q71 -71 97 -169.5t26 -231.5q0 -88 -9.5 -156.5t-37 -132t-76.5 -113.5q-114 -114 -288 -114q-173 0 -289 114q-49 50 -76 112t-37 132t-10 158zM279 504q0 -106 15.5 -183t65.5 -128q74 -74 183 -74 q112 0 184 74q50 50 65 125t15 186q0 110 -15.5 186t-64.5 125q-74 74 -184 74q-107 0 -183 -74q-50 -51 -65.5 -128.5t-15.5 -182.5z" />
<glyph unicode="p" horiz-adv-x="1116" d="M184 -451v1459h148v-119q58 75 125.5 103t158.5 28q75 0 141 -23.5t105 -64.5q70 -68 96.5 -178.5t26.5 -249.5t-26.5 -249.5t-96.5 -178.5q-39 -39 -105 -63.5t-141 -24.5q-59 0 -107 11.5t-93.5 41t-83.5 78.5v-570h-148zM332 504q0 -177 52 -281t202 -104t201 103 t51 282q0 178 -51 281.5t-201 103.5q-149 0 -201.5 -104.5t-52.5 -280.5z" />
<glyph unicode="q" horiz-adv-x="1116" d="M131 504q0 304 123 428q88 88 246 88q92 0 160.5 -28t125.5 -103v119h146v-1459h-148v570q-38 -49 -83.5 -78.5t-93.5 -41t-107 -11.5q-158 0 -246 88q-123 123 -123 428zM279 504q0 -177 51.5 -281t201.5 -104q149 0 200.5 103t51.5 282q0 178 -51 281.5t-201 103.5 q-149 0 -201 -105t-52 -280z" />
<glyph unicode="r" horiz-adv-x="862" d="M184 0v1008h148v-123q42 63 118.5 99t163.5 36q147 0 242 -94l-108 -111q-41 41 -79.5 57.5t-95.5 16.5q-72 0 -127 -35.5t-84.5 -96.5t-29.5 -139v-618h-148z" />
<glyph unicode="s" horiz-adv-x="1016" d="M88 133l98 98q110 -116 314 -116q126 0 197 45t71 133q0 66 -40.5 103t-127.5 44l-166 15q-301 25 -301 270q0 136 103.5 215.5t267.5 79.5q109 0 203 -27.5t159 -81.5l-96 -96q-105 80 -268 80q-109 0 -167.5 -44t-58.5 -122q0 -133 177 -147l161 -15q143 -13 220 -76 t77 -196q0 -96 -51 -165t-143 -105.5t-215 -36.5q-131 0 -232 34t-182 111z" />
<glyph unicode="t" horiz-adv-x="680" d="M82 889v112h127v316h147v-316h215v-112h-215v-615q0 -147 138 -147h77v-127h-104q-124 0 -191 76.5t-67 193.5v619h-127z" />
<glyph unicode="u" horiz-adv-x="1151" d="M174 365v643h148v-621q0 -130 65 -199t180 -69q117 0 184.5 69.5t67.5 198.5v621h148v-1008h-146v113q-52 -61 -126 -93t-158 -32q-167 0 -261 94q-52 52 -77 123t-25 160z" />
<glyph unicode="v" horiz-adv-x="915" d="M23 1008h159l275 -809l276 809h160l-371 -1008h-131z" />
<glyph unicode="w" horiz-adv-x="1483" d="M23 1008h159l232 -809l264 809h127l266 -809l229 809h160l-317 -1008h-137l-265 782l-262 -782h-137z" />
<glyph unicode="x" horiz-adv-x="979" d="M68 0l342 514l-328 494h178l232 -373l227 373h178l-328 -494l342 -514h-178l-241 391l-246 -391h-178z" />
<glyph unicode="y" horiz-adv-x="915" d="M23 1008h159l277 -809l274 809h160l-459 -1252q-29 -79 -72 -118q-71 -70 -196 -70h-64v131h45q75 0 108 27t58 98l72 196z" />
<glyph unicode="z" horiz-adv-x="940" d="M102 0v127l562 750h-531v131h701v-125l-564 -752h564v-131h-732z" />
<glyph unicode="{" horiz-adv-x="725" d="M98 664v131h54q54 0 92 36q37 39 37 123v392q0 79 13 123t48 79q62 62 207 62h76v-131h-47q-57 0 -82 -6t-39 -21q-29 -28 -29 -133v-385q0 -81 -32.5 -127.5t-96.5 -77.5q63 -29 96 -76t33 -129v-385q0 -104 29 -133q14 -14 41.5 -20t79.5 -6h47v-132h-76 q-75 0 -124 14.5t-83 47.5q-35 37 -48 80t-13 123v391q0 84 -37 123q-39 37 -92 37h-54z" />
<glyph unicode="|" horiz-adv-x="668" d="M260 -152v1762h148v-1762h-148z" />
<glyph unicode="}" horiz-adv-x="725" d="M98 -20h49q52 0 78.5 6t40.5 20q31 31 31 133v385q0 82 33 129t96 76q-41 19 -69.5 44.5t-44 66t-15.5 94.5v385q0 103 -31 133q-14 15 -38 21t-81 6h-49v131h78q145 0 207 -62q34 -33 47.5 -78t13.5 -124v-392q0 -84 37 -123q38 -36 92 -36h52v-131h-52q-53 0 -92 -37 q-37 -39 -37 -123v-391q0 -80 -13.5 -124.5t-47.5 -78.5q-33 -33 -81.5 -47.5t-125.5 -14.5h-78v132z" />
<glyph unicode="~" horiz-adv-x="1104" d="M100 543q57 57 99.5 87t80 41t85.5 11q50 0 97 -15.5t118 -48.5q59 -26 91 -37.5t68 -11.5q46 0 80.5 18t91.5 75l93 -93q-57 -57 -99.5 -87t-80.5 -41t-85 -11q-49 0 -95.5 15.5t-121.5 48.5q-107 49 -160 49q-45 0 -80 -17.5t-92 -74.5z" />
<glyph unicode="&#xa1;" horiz-adv-x="647" d="M203 911q0 45 29 74t73 29q21 0 40.5 -8t33 -21t21.5 -33.5t8 -40.5q0 -44 -30 -73t-73 -29q-44 0 -73 29t-29 73zM219 -451l27 1049h119l26 -1049h-172z" />
<glyph unicode="&#xa2;" horiz-adv-x="1020" d="M129 750q0 109 25.5 197.5t74.5 155t116.5 106t154.5 51.5v198h121v-194q89 -6 158 -41t139 -111l-101 -94q-50 58 -96 82.5t-109 29.5v-761q63 5 108.5 30t96.5 82l101 -94q-70 -76 -137.5 -110.5t-159.5 -40.5v-236h-121v240q-84 12 -152.5 51.5t-118.5 107t-75 155.5 t-25 196zM276 750q0 -176 68 -271q63 -88 164 -106v753q-101 -18 -164 -106q-35 -50 -51.5 -112.5t-16.5 -157.5z" />
<glyph unicode="&#xa3;" horiz-adv-x="1122" d="M96 676v110h129v230q0 137 58.5 240.5t162.5 158.5t236 55q105 0 187 -32.5t147 -98.5l-107 -104q-46 47 -96 71.5t-131 24.5q-143 0 -221 -87t-78 -249v-209h299v-110h-299v-537h633v-139h-791v676h-129z" />
<glyph unicode="&#xa4;" horiz-adv-x="1352" d="M160 133l151 152q-90 119 -90 270t90 270l-151 150l94 94l152 -149q117 88 270 88q150 0 268 -88l154 149l94 -94l-152 -150q90 -117 90 -270t-90 -270l152 -152l-94 -94l-154 151q-121 -90 -268 -90q-151 0 -270 90l-152 -151zM356 555q0 -132 94.5 -225.5t225.5 -93.5 q85 0 159 43t116 117t42 159t-42.5 158.5t-116 116t-158.5 42.5t-159 -42t-117.5 -115.5t-43.5 -159.5z" />
<glyph unicode="&#xa5;" horiz-adv-x="1053" d="M16 1458h168l344 -698l342 698h166l-321 -637h205v-110h-261l-53 -109v-106h314v-113h-314v-383h-157v383h-316v113h316v106l-54 109h-262v110h205z" />
<glyph unicode="&#xa6;" horiz-adv-x="686" d="M260 -152v717h148v-717h-148zM260 893v717h148v-717h-148z" />
<glyph unicode="&#xa7;" horiz-adv-x="1141" d="M178 516q0 119 61.5 206t153.5 130q-94 44 -142 110t-48 173q0 97 46.5 173.5t130.5 119t191 42.5q108 0 190.5 -39t130 -110.5t52.5 -171.5h-147q-15 190 -226 190q-105 0 -163 -52t-58 -150q0 -77 45 -125t127 -72l160 -45q87 -25 151 -78t97 -128.5t33 -168.5 q0 -117 -61.5 -204t-151.5 -132q90 -33 144 -109.5t54 -185.5q0 -104 -49.5 -184.5t-135.5 -124t-192 -43.5q-104 0 -189 37.5t-138.5 112t-59.5 180.5h150q9 -94 71 -144.5t166 -50.5q105 0 166.5 57t61.5 158q0 73 -48.5 129.5t-132.5 79.5l-159 45q-89 25 -152 78 t-96 128.5t-33 168.5zM328 518q0 -114 67 -188q68 -74 176 -74q109 0 177 74q65 73 65 188q0 123 -65 189q-75 73 -177 73q-109 0 -176 -73q-36 -41 -51.5 -84t-15.5 -105z" />
<glyph unicode="&#xa8;" horiz-adv-x="1024" d="M203 1321q0 39 27.5 66.5t64.5 27.5q39 0 65.5 -27.5t26.5 -66.5q0 -38 -26 -65t-66 -27q-38 0 -65 27t-27 65zM637 1321q0 39 27.5 66.5t64.5 27.5q39 0 65.5 -27.5t26.5 -66.5q0 -38 -26 -65t-66 -27q-38 0 -65 27t-27 65z" />
<glyph unicode="&#xa9;" horiz-adv-x="1804" d="M160 729q0 149 58 286t159.5 238.5t238.5 159t285 57.5q149 0 286 -58t238 -159t159 -238t58 -286t-58 -286t-159 -238t-238 -159t-286 -58q-148 0 -285 57.5t-238.5 159t-159.5 238.5t-58 286zM281 729q0 -171 83.5 -316t225.5 -230t311 -85q126 0 239.5 49t199.5 135.5 t135 202t49 244.5t-49 244.5t-133.5 201.5t-199.5 135.5t-241 49.5t-240.5 -49.5t-198.5 -136t-132.5 -202.5t-48.5 -243zM547 729q0 121 41.5 215.5t125 148.5t197.5 54q83 0 143 -25.5t126 -83.5l-74 -73q-48 42 -92.5 60.5t-102.5 18.5q-130 0 -189.5 -86.5t-59.5 -228.5 q0 -141 59 -227t190 -86q57 0 101.5 17.5t93.5 60.5l74 -74q-63 -57 -125 -82t-144 -25q-86 0 -155 31t-116 88t-70 131.5t-23 165.5z" />
<glyph unicode="&#xaa;" horiz-adv-x="920" d="M115 879q0 107 72 170t204 63h236v74q0 88 -46 130t-153 42q-74 0 -119 -20t-82 -70l-84 75q52 68 119 95.5t168 27.5q104 0 176 -31t107 -91t35 -148v-543h-119v74q-48 -45 -99 -64.5t-129 -19.5q-79 0 -131.5 17t-93.5 57q-61 64 -61 162zM236 883q0 -68 42.5 -100.5 t133.5 -32.5q61 0 102 10t74 41q39 36 39 137v82h-219q-172 0 -172 -137z" />
<glyph unicode="&#xab;" horiz-adv-x="1135" d="M82 549l430 430v-184l-246 -246l246 -248v-182zM545 549l430 430v-184l-248 -246l248 -248v-182z" />
<glyph unicode="&#xac;" horiz-adv-x="1069" d="M104 492v137h861v-418h-138v281h-723z" />
<glyph unicode="&#xad;" horiz-adv-x="1069" d="M106 483v138h857v-138h-857z" />
<glyph unicode="&#xae;" horiz-adv-x="1804" d="M160 729q0 149 58 286t159.5 238.5t238.5 159t285 57.5q149 0 286 -58t238 -159t159 -238t58 -286t-58 -286t-159 -238t-238 -159t-286 -58q-148 0 -285 57.5t-238.5 159t-159.5 238.5t-58 286zM279 729q0 -126 48.5 -242.5t135.5 -205t199.5 -137t238.5 -48.5t240.5 49 t201 137.5t135 202.5t48.5 244t-49 245.5t-134 201.5t-200.5 136t-241.5 50t-240 -49t-199 -135.5t-134 -204.5t-49 -244zM659 324v813h277q69 0 128 -32t93.5 -88.5t34.5 -123.5q0 -87 -47 -143t-127 -80l194 -346h-131l-186 331h-123v-331h-113zM772 752h152q67 0 110 40 t43 101q0 62 -43 102.5t-110 40.5h-152v-284z" />
<glyph unicode="&#xaf;" horiz-adv-x="1024" d="M203 1257v117h618v-117h-618z" />
<glyph unicode="&#xb0;" horiz-adv-x="948" d="M137 1141q0 91 45.5 168.5t124 122.5t168.5 45q71 0 132.5 -26t106 -71t71 -107t26.5 -132q0 -92 -44.5 -169.5t-122 -122t-169.5 -44.5q-139 0 -238.5 98.5t-99.5 237.5zM262 1141q0 -92 61.5 -154.5t151.5 -62.5q89 0 150 62t61 155q0 60 -27.5 109.5t-76.5 78.5 t-109 29q-61 0 -108.5 -28.5t-75 -78.5t-27.5 -110z" />
<glyph unicode="&#xb1;" horiz-adv-x="1069" d="M106 0v137h857v-137h-857zM106 592v137h361v358h137v-358h359v-137h-359v-363h-137v363h-361z" />
<glyph unicode="&#xb2;" horiz-adv-x="700" d="M98 584v106l338 414q47 58 47 119q0 62 -35.5 99.5t-97.5 37.5q-58 0 -95.5 -33.5t-37.5 -103.5h-119q0 109 71 176t181 67q74 0 131 -29.5t89 -84.5t32 -129q0 -53 -18 -94.5t-62 -94.5l-282 -344h362v-106h-504z" />
<glyph unicode="&#xb3;" horiz-adv-x="729" d="M98 817h119q3 -66 46 -101.5t104 -35.5q64 0 105.5 40.5t41.5 108.5q0 70 -39 110t-115 40h-18v102h18q70 0 105 37t35 103q0 67 -39 103t-96 36q-60 0 -97 -35t-41 -94h-116q4 73 38 125.5t91.5 81t124.5 28.5q111 0 181 -67.5t70 -175.5q0 -136 -110 -189 q125 -53 125 -205q0 -81 -35 -138.5t-96 -87.5t-133 -30q-113 0 -189 62t-80 182z" />
<glyph unicode="&#xb4;" horiz-adv-x="1024" d="M412 1217l180 313h176l-221 -313h-135z" />
<glyph unicode="&#xb5;" horiz-adv-x="1149" d="M170 -451v1459h147v-621q0 -131 67 -199.5t181 -68.5q117 0 184.5 69.5t67.5 198.5v621h148v-1008h-148v113q-54 -61 -126 -93t-156 -32q-135 0 -218 75v-514h-147z" />
<glyph unicode="&#xb6;" horiz-adv-x="1235" d="M86 1061q0 110 53 200.5t155 143.5t236 53h494v-1909h-147v1770h-240v-1770h-148v1119q-89 0 -163 31.5t-127.5 87.5t-83 127t-29.5 147z" />
<glyph unicode="&#xb8;" horiz-adv-x="1024" d="M358 -442l146 305h137l-121 -305h-162z" />
<glyph unicode="&#xb9;" horiz-adv-x="535" d="M88 1178v135l170 145h117v-874h-117v743z" />
<glyph unicode="&#xba;" horiz-adv-x="932" d="M137 1055q0 106 20.5 183t78.5 136q90 92 229 92t229 -92q58 -59 78.5 -136t20.5 -183q0 -107 -20.5 -184t-78.5 -136q-90 -90 -229 -90t-229 90q-58 59 -78.5 136t-20.5 184zM260 1055q0 -85 12 -144.5t50 -97.5q57 -59 143 -59q84 0 143 59q39 39 51.5 98t12.5 144 q0 86 -12.5 146t-51.5 97q-58 58 -143 58q-87 0 -143 -58q-38 -36 -50 -96.5t-12 -146.5z" />
<glyph unicode="&#xbb;" horiz-adv-x="1135" d="M160 119v182l248 248l-248 246v184l430 -430zM623 119v182l245 248l-245 246v184l430 -430z" />
<glyph unicode="&#xbc;" horiz-adv-x="1591" d="M88 1178v135l170 145h117v-874h-117v743zM354 0l682 1458h123l-682 -1458h-123zM946 131v109l309 634h127l-307 -634h223v215h115v-215h96v-109h-96v-131h-115v131h-352z" />
<glyph unicode="&#xbd;" horiz-adv-x="1618" d="M88 1178v135l170 145h117v-874h-117v743zM330 0l682 1458h123l-682 -1458h-123zM1016 0v106l338 414q47 60 47 119q0 62 -35.5 99.5t-97.5 37.5q-58 0 -95.5 -34t-37.5 -103h-119q0 73 32 128.5t90.5 85.5t129.5 30q74 0 131.5 -30t89 -86.5t31.5 -127.5q0 -53 -18.5 -94 t-61.5 -94l-281 -345h361v-106h-504z" />
<glyph unicode="&#xbe;" horiz-adv-x="1683" d="M98 817h119q3 -66 46 -101.5t104 -35.5q64 0 105.5 40.5t41.5 108.5q0 70 -39 110t-115 40h-18v102h18q70 0 105 37t35 103q0 67 -39 103t-96 36q-60 0 -97 -35t-41 -94h-116q4 73 38 125.5t91.5 81t124.5 28.5q111 0 181 -67.5t70 -175.5q0 -136 -110 -189 q125 -53 125 -205q0 -81 -35 -138.5t-96 -87.5t-133 -30q-113 0 -189 62t-80 182zM461 0l684 1458h123l-684 -1458h-123zM1038 131v109l310 634h127l-310 -634h226v215h114v-215h97v-109h-97v-131h-114v131h-353z" />
<glyph unicode="&#xbf;" horiz-adv-x="1018" d="M106 -88q0 65 23.5 122.5t69.5 123.5l168 241q36 55 36 119v82h148v-84q0 -59 -14.5 -101t-49.5 -91l-165 -238q-35 -51 -51.5 -88.5t-16.5 -85.5q0 -103 66.5 -172.5t168.5 -69.5q72 0 126 33.5t83 88.5t29 120h147q0 -77 -29 -146t-81 -120.5t-124.5 -80t-150.5 -28.5 t-148.5 27.5t-123.5 79t-82 121t-29 147.5zM375 911q0 44 30.5 73.5t73.5 29.5q20 0 40.5 -8t33.5 -21t21 -33.5t8 -40.5q0 -44 -29 -73t-74 -29q-43 0 -73.5 29.5t-30.5 72.5z" />
<glyph unicode="&#xc0;" horiz-adv-x="1251" d="M25 0l536 1458h131l535 -1458h-166l-117 330h-637l-117 -330h-165zM354 465h545l-270 770zM362 1913h176l180 -313h-135z" />
<glyph unicode="&#xc1;" horiz-adv-x="1251" d="M25 0l536 1458h131l535 -1458h-166l-117 330h-637l-117 -330h-165zM354 465h545l-270 770zM518 1600l180 313h176l-221 -313h-135z" />
<glyph unicode="&#xc2;" horiz-adv-x="1251" d="M25 0l536 1458h131l535 -1458h-166l-117 330h-637l-117 -330h-165zM292 1600l256 313h140l256 -313h-142l-184 213l-184 -213h-142zM354 465h545l-270 770z" />
<glyph unicode="&#xc3;" horiz-adv-x="1251" d="M25 0l536 1458h131l535 -1458h-166l-117 330h-637l-117 -330h-165zM288 1726q63 64 106.5 84.5t88.5 20.5q43 0 74.5 -12t70.5 -37q65 -41 115 -41q55 0 121 65l76 -73q-105 -105 -195 -105q-38 0 -69 11t-76 36q-73 43 -115 43q-29 0 -54 -11.5t-67 -53.5zM354 465h545 l-270 770z" />
<glyph unicode="&#xc4;" horiz-adv-x="1251" d="M25 0l536 1458h131l535 -1458h-166l-117 330h-637l-117 -330h-165zM309 1704q0 39 27.5 66.5t64.5 27.5q39 0 65.5 -27.5t26.5 -66.5q0 -38 -26 -65t-66 -27q-38 0 -65 27t-27 65zM354 465h545l-270 770zM743 1704q0 39 27.5 66.5t64.5 27.5q39 0 65.5 -27.5t26.5 -66.5 q0 -38 -26 -65t-66 -27q-38 0 -65 27t-27 65z" />
<glyph unicode="&#xc5;" horiz-adv-x="1251" d="M25 0l536 1458h131l535 -1458h-166l-117 330h-637l-117 -330h-165zM354 465h545l-270 770zM376 1776q0 100 71 171t171 71q65 0 121 -32t88.5 -87.5t32.5 -122.5q0 -65 -33 -121.5t-88 -89.5t-121 -33t-121 33t-88 89.5t-33 121.5zM477 1776q0 -57 42 -99t99 -42t99 42 t42 99q0 58 -41.5 98.5t-99.5 40.5t-99.5 -40.5t-41.5 -98.5z" />
<glyph unicode="&#xc6;" horiz-adv-x="1888" d="M16 0l770 1458h990v-139h-750v-518h639v-139h-639v-523h750v-139h-904v346h-505l-181 -346h-170zM434 481h438v838z" />
<glyph unicode="&#xc7;" horiz-adv-x="1282" d="M156 729q0 187 6.5 279.5t35.5 168.5t95 142q151 151 373 151q127 0 223.5 -45.5t185.5 -132.5l-104 -104q-77 76 -143 109.5t-162 33.5q-74 0 -139 -26.5t-113 -75.5q-45 -45 -67.5 -103.5t-29 -144t-6.5 -252.5q0 -238 18 -334t85 -166q99 -102 252 -102 q66 0 117.5 16.5t92.5 45.5t95 81l104 -104q-92 -89 -187 -133.5t-222 -44.5q-222 0 -373 151q-53 54 -79.5 106.5t-39.5 122.5t-15.5 143.5t-2.5 217.5zM475 -442l146 305h137l-121 -305h-162z" />
<glyph unicode="&#xc8;" horiz-adv-x="1229" d="M211 0v1458h905v-139h-749v-514h639v-139h-639v-527h749v-139h-905zM385 1913h176l180 -313h-135z" />
<glyph unicode="&#xc9;" horiz-adv-x="1229" d="M211 0v1458h905v-139h-749v-514h639v-139h-639v-527h749v-139h-905zM541 1600l180 313h176l-221 -313h-135z" />
<glyph unicode="&#xca;" horiz-adv-x="1229" d="M211 0v1458h905v-139h-749v-514h639v-139h-639v-527h749v-139h-905zM315 1600l256 313h140l256 -313h-142l-184 213l-184 -213h-142z" />
<glyph unicode="&#xcb;" horiz-adv-x="1229" d="M211 0v1458h905v-139h-749v-514h639v-139h-639v-527h749v-139h-905zM332 1704q0 39 27.5 66.5t64.5 27.5q39 0 65.5 -27.5t26.5 -66.5q0 -38 -26 -65t-66 -27q-38 0 -65 27t-27 65zM766 1704q0 39 27.5 66.5t64.5 27.5q39 0 65.5 -27.5t26.5 -66.5q0 -38 -26 -65t-66 -27 q-38 0 -65 27t-27 65z" />
<glyph unicode="&#xcc;" horiz-adv-x="578" d="M63 1913h176l180 -313h-135zM211 0v1458h156v-1458h-156z" />
<glyph unicode="&#xcd;" horiz-adv-x="578" d="M162 1600l180 313h176l-221 -313h-135zM211 0v1458h156v-1458h-156z" />
<glyph unicode="&#xce;" horiz-adv-x="578" d="M-41 1600l256 313h140l256 -313h-142l-184 213l-184 -213h-142zM211 0v1458h156v-1458h-156z" />
<glyph unicode="&#xcf;" horiz-adv-x="578" d="M-22 1704q0 39 27.5 66.5t64.5 27.5q39 0 65.5 -27.5t26.5 -66.5q0 -38 -26 -65t-66 -27q-38 0 -65 27t-27 65zM211 0v1458h156v-1458h-156zM412 1704q0 39 27.5 66.5t64.5 27.5q39 0 65.5 -27.5t26.5 -66.5q0 -38 -26 -65t-66 -27q-38 0 -65 27t-27 65z" />
<glyph unicode="&#xd0;" horiz-adv-x="1407" d="M80 676v121h160v661h501q276 0 420 -219q42 -64 60.5 -119.5t24 -139.5t5.5 -251q0 -179 -6.5 -264t-24 -137.5t-60 -113t-106 -110t-146 -77t-179.5 -27.5h-489v676h-160zM397 137h316q106 0 188 39t131 113q44 65 54 139t10 293q0 161 -4.5 231.5t-20 122t-49.5 99.5 q-58 79 -131 113t-178 34h-316v-524h330v-121h-330v-539z" />
<glyph unicode="&#xd1;" horiz-adv-x="1499" d="M211 0v1458h147l775 -1165v1165h155v-1458h-147l-774 1169v-1169h-156zM420 1726q63 64 106.5 84.5t88.5 20.5q43 0 74.5 -12t70.5 -37q65 -41 115 -41q55 0 121 65l76 -73q-105 -105 -195 -105q-38 0 -69 11t-76 36q-73 43 -115 43q-29 0 -54 -11.5t-67 -53.5z" />
<glyph unicode="&#xd2;" horiz-adv-x="1331" d="M156 729q0 187 6.5 279.5t35.5 168.5t95 142q151 151 373 151q221 0 372 -151q65 -63 95 -140.5t36.5 -170t6.5 -279.5t-6.5 -279.5t-36.5 -170t-95 -140.5q-151 -151 -372 -151q-222 0 -373 151q-53 54 -79.5 106.5t-39.5 122.5t-15.5 143.5t-2.5 217.5zM311 729 q0 -237 18 -332.5t85 -165.5q49 -49 114.5 -76.5t137.5 -27.5q71 0 137 27.5t115 76.5q35 37 55.5 77t30.5 93.5t13 121t3 206.5q0 140 -3 208t-13 121.5t-30.5 93.5t-55.5 75q-49 50 -115 77t-137 27q-72 0 -137.5 -26.5t-114.5 -77.5q-67 -69 -85 -164.5t-18 -333.5z M410 1913h176l180 -313h-135z" />
<glyph unicode="&#xd3;" horiz-adv-x="1331" d="M156 729q0 187 6.5 279.5t35.5 168.5t95 142q151 151 373 151q221 0 372 -151q65 -63 95 -140.5t36.5 -170t6.5 -279.5t-6.5 -279.5t-36.5 -170t-95 -140.5q-151 -151 -372 -151q-222 0 -373 151q-53 54 -79.5 106.5t-39.5 122.5t-15.5 143.5t-2.5 217.5zM311 729 q0 -237 18 -332.5t85 -165.5q49 -49 114.5 -76.5t137.5 -27.5q71 0 137 27.5t115 76.5q35 37 55.5 77t30.5 93.5t13 121t3 206.5q0 140 -3 208t-13 121.5t-30.5 93.5t-55.5 75q-49 50 -115 77t-137 27q-72 0 -137.5 -26.5t-114.5 -77.5q-67 -69 -85 -164.5t-18 -333.5z M566 1600l180 313h176l-221 -313h-135z" />
<glyph unicode="&#xd4;" horiz-adv-x="1331" d="M156 729q0 187 6.5 279.5t35.5 168.5t95 142q151 151 373 151q221 0 372 -151q65 -63 95 -140.5t36.5 -170t6.5 -279.5t-6.5 -279.5t-36.5 -170t-95 -140.5q-151 -151 -372 -151q-222 0 -373 151q-53 54 -79.5 106.5t-39.5 122.5t-15.5 143.5t-2.5 217.5zM311 729 q0 -237 18 -332.5t85 -165.5q49 -49 114.5 -76.5t137.5 -27.5q71 0 137 27.5t115 76.5q35 37 55.5 77t30.5 93.5t13 121t3 206.5q0 140 -3 208t-13 121.5t-30.5 93.5t-55.5 75q-49 50 -115 77t-137 27q-72 0 -137.5 -26.5t-114.5 -77.5q-67 -69 -85 -164.5t-18 -333.5z M340 1600l256 313h140l256 -313h-142l-184 213l-184 -213h-142z" />
<glyph unicode="&#xd5;" horiz-adv-x="1331" d="M156 729q0 187 6.5 279.5t35.5 168.5t95 142q151 151 373 151q221 0 372 -151q65 -63 95 -140.5t36.5 -170t6.5 -279.5t-6.5 -279.5t-36.5 -170t-95 -140.5q-151 -151 -372 -151q-222 0 -373 151q-53 54 -79.5 106.5t-39.5 122.5t-15.5 143.5t-2.5 217.5zM311 729 q0 -237 18 -332.5t85 -165.5q49 -49 114.5 -76.5t137.5 -27.5q71 0 137 27.5t115 76.5q35 37 55.5 77t30.5 93.5t13 121t3 206.5q0 140 -3 208t-13 121.5t-30.5 93.5t-55.5 75q-49 50 -115 77t-137 27q-72 0 -137.5 -26.5t-114.5 -77.5q-67 -69 -85 -164.5t-18 -333.5z M336 1726q63 64 106.5 84.5t88.5 20.5q43 0 74.5 -12t70.5 -37q65 -41 115 -41q55 0 121 65l76 -73q-105 -105 -195 -105q-38 0 -69 11t-76 36q-73 43 -115 43q-29 0 -54 -11.5t-67 -53.5z" />
<glyph unicode="&#xd6;" horiz-adv-x="1331" d="M156 729q0 187 6.5 279.5t35.5 168.5t95 142q151 151 373 151q221 0 372 -151q65 -63 95 -140.5t36.5 -170t6.5 -279.5t-6.5 -279.5t-36.5 -170t-95 -140.5q-151 -151 -372 -151q-222 0 -373 151q-53 54 -79.5 106.5t-39.5 122.5t-15.5 143.5t-2.5 217.5zM311 729 q0 -237 18 -332.5t85 -165.5q49 -49 114.5 -76.5t137.5 -27.5q71 0 137 27.5t115 76.5q35 37 55.5 77t30.5 93.5t13 121t3 206.5q0 140 -3 208t-13 121.5t-30.5 93.5t-55.5 75q-49 50 -115 77t-137 27q-72 0 -137.5 -26.5t-114.5 -77.5q-67 -69 -85 -164.5t-18 -333.5z M357 1704q0 39 27.5 66.5t64.5 27.5q39 0 65.5 -27.5t26.5 -66.5q0 -38 -26 -65t-66 -27q-38 0 -65 27t-27 65zM791 1704q0 39 27.5 66.5t64.5 27.5q39 0 65.5 -27.5t26.5 -66.5q0 -38 -26 -65t-66 -27q-38 0 -65 27t-27 65z" />
<glyph unicode="&#xd7;" horiz-adv-x="1069" d="M133 244l309 309l-309 309l92 92l310 -311l309 311l92 -92l-311 -309l311 -309l-92 -92l-309 309l-310 -309z" />
<glyph unicode="&#xd8;" horiz-adv-x="1335" d="M156 729q0 187 6.5 279.5t35.5 168.5t95 142q151 151 373 151q145 0 256 -63l69 141h133l-102 -213l16 -16q65 -63 95 -140.5t36.5 -170t6.5 -279.5t-6.5 -279.5t-36.5 -170t-95 -140.5q-151 -151 -372 -151q-145 0 -258 65l-68 -143h-133l102 213q-3 3 -4 4.5t-3 3.5 t-4 3.5t-5 4.5q-53 54 -79.5 106.5t-39.5 122.5t-15.5 143.5t-2.5 217.5zM311 729q0 -213 13 -306.5t59 -154.5l479 1004q-91 59 -196 59q-72 0 -137.5 -26.5t-114.5 -77.5q-67 -69 -85 -164.5t-18 -333.5zM469 186q93 -59 197 -59q71 0 137 27.5t115 76.5q46 48 66.5 103.5 t27 143t6.5 251.5q0 123 -1.5 184t-8.5 114t-21 91.5t-39 71.5z" />
<glyph unicode="&#xd9;" horiz-adv-x="1397" d="M190 481v977h156v-964q0 -111 43.5 -193.5t124 -128t184.5 -45.5q105 0 186 45.5t125 129.5t44 192v964h155v-977q0 -109 -37.5 -198.5t-105.5 -155.5t-163 -102.5t-204 -36.5q-108 0 -201.5 36t-163.5 102.5t-106.5 156t-36.5 198.5zM442 1913h176l180 -313h-135z" />
<glyph unicode="&#xda;" horiz-adv-x="1397" d="M190 481v977h156v-964q0 -111 43.5 -193.5t124 -128t184.5 -45.5q105 0 186 45.5t125 129.5t44 192v964h155v-977q0 -109 -37.5 -198.5t-105.5 -155.5t-163 -102.5t-204 -36.5q-108 0 -201.5 36t-163.5 102.5t-106.5 156t-36.5 198.5zM598 1600l180 313h176l-221 -313 h-135z" />
<glyph unicode="&#xdb;" horiz-adv-x="1397" d="M190 481v977h156v-964q0 -111 43.5 -193.5t124 -128t184.5 -45.5q105 0 186 45.5t125 129.5t44 192v964h155v-977q0 -109 -37.5 -198.5t-105.5 -155.5t-163 -102.5t-204 -36.5q-108 0 -201.5 36t-163.5 102.5t-106.5 156t-36.5 198.5zM372 1600l256 313h140l256 -313 h-142l-184 213l-184 -213h-142z" />
<glyph unicode="&#xdc;" horiz-adv-x="1397" d="M190 481v977h156v-964q0 -111 43.5 -193.5t124 -128t184.5 -45.5q105 0 186 45.5t125 129.5t44 192v964h155v-977q0 -109 -37.5 -198.5t-105.5 -155.5t-163 -102.5t-204 -36.5q-108 0 -201.5 36t-163.5 102.5t-106.5 156t-36.5 198.5zM389 1704q0 39 27.5 66.5t64.5 27.5 q39 0 65.5 -27.5t26.5 -66.5q0 -38 -26 -65t-66 -27q-38 0 -65 27t-27 65zM823 1704q0 39 27.5 66.5t64.5 27.5q39 0 65.5 -27.5t26.5 -66.5q0 -38 -26 -65t-66 -27q-38 0 -65 27t-27 65z" />
<glyph unicode="&#xdd;" horiz-adv-x="1053" d="M16 1458h168l344 -698l340 698h168l-430 -856v-602h-155v602zM426 1600l180 313h176l-221 -313h-135z" />
<glyph unicode="&#xde;" horiz-adv-x="1315" d="M211 0v1458h156v-293h387q100 0 183.5 -30.5t143 -86.5t91.5 -135t32 -178q0 -128 -56.5 -225.5t-158.5 -150t-235 -52.5h-387v-307h-156zM367 446h372q91 0 162 32.5t109.5 98t38.5 158.5t-39 159t-109.5 98t-161.5 32h-372v-578z" />
<glyph unicode="&#xdf;" horiz-adv-x="1139" d="M184 0v1073q0 125 50 215.5t144 137.5t218 47q86 0 155 -19.5t124.5 -62t85.5 -107.5t30 -151q0 -161 -129 -244q73 -38 101 -91.5t28 -154.5v-354q0 -143 -80 -215q-42 -39 -91.5 -56.5t-119.5 -17.5h-110v127h82q43 0 67.5 8.5t53.5 32.5q51 43 51 137v346 q0 84 -43 127t-121 43h-90v123h74q80 0 130 51t50 135q0 44 -17.5 86t-46.5 68q-62 59 -192 59q-90 0 -146 -34t-82 -96t-26 -146v-1067h-150z" />
<glyph unicode="&#xe0;" horiz-adv-x="1077" d="M104 285q0 135 90.5 212.5t258.5 77.5h303v97q0 113 -60.5 167t-197.5 54q-95 0 -151.5 -25.5t-102.5 -89.5l-101 92q43 56 95 89.5t115.5 47t146.5 13.5q104 0 179 -21.5t125 -64t74.5 -104t24.5 -146.5v-684h-147v96q-61 -61 -126 -84.5t-165 -23.5q-102 0 -170 21.5 t-115 70.5q-76 76 -76 205zM248 287q0 -87 56 -129.5t175 -42.5q76 0 129 12.5t97 54.5q51 49 51 174v109h-283q-225 0 -225 -178zM260 1530h176l180 -313h-135z" />
<glyph unicode="&#xe1;" horiz-adv-x="1077" d="M104 285q0 135 90.5 212.5t258.5 77.5h303v97q0 113 -60.5 167t-197.5 54q-95 0 -151.5 -25.5t-102.5 -89.5l-101 92q43 56 95 89.5t115.5 47t146.5 13.5q104 0 179 -21.5t125 -64t74.5 -104t24.5 -146.5v-684h-147v96q-61 -61 -126 -84.5t-165 -23.5q-102 0 -170 21.5 t-115 70.5q-76 76 -76 205zM248 287q0 -87 56 -129.5t175 -42.5q76 0 129 12.5t97 54.5q51 49 51 174v109h-283q-225 0 -225 -178zM416 1217l180 313h176l-221 -313h-135z" />
<glyph unicode="&#xe2;" horiz-adv-x="1077" d="M104 285q0 135 90.5 212.5t258.5 77.5h303v97q0 113 -60.5 167t-197.5 54q-95 0 -151.5 -25.5t-102.5 -89.5l-101 92q43 56 95 89.5t115.5 47t146.5 13.5q104 0 179 -21.5t125 -64t74.5 -104t24.5 -146.5v-684h-147v96q-61 -61 -126 -84.5t-165 -23.5q-102 0 -170 21.5 t-115 70.5q-76 76 -76 205zM190 1217l256 313h140l256 -313h-142l-184 213l-184 -213h-142zM248 287q0 -87 56 -129.5t175 -42.5q76 0 129 12.5t97 54.5q51 49 51 174v109h-283q-225 0 -225 -178z" />
<glyph unicode="&#xe3;" horiz-adv-x="1077" d="M104 285q0 135 90.5 212.5t258.5 77.5h303v97q0 113 -60.5 167t-197.5 54q-95 0 -151.5 -25.5t-102.5 -89.5l-101 92q43 56 95 89.5t115.5 47t146.5 13.5q104 0 179 -21.5t125 -64t74.5 -104t24.5 -146.5v-684h-147v96q-61 -61 -126 -84.5t-165 -23.5q-102 0 -170 21.5 t-115 70.5q-76 76 -76 205zM186 1343q63 64 106.5 84.5t88.5 20.5q43 0 74.5 -12t70.5 -37q65 -41 115 -41q55 0 121 65l76 -73q-105 -105 -195 -105q-38 0 -69 11t-76 36q-73 43 -115 43q-29 0 -54 -11.5t-67 -53.5zM248 287q0 -87 56 -129.5t175 -42.5q76 0 129 12.5 t97 54.5q51 49 51 174v109h-283q-225 0 -225 -178z" />
<glyph unicode="&#xe4;" horiz-adv-x="1077" d="M104 285q0 135 90.5 212.5t258.5 77.5h303v97q0 113 -60.5 167t-197.5 54q-95 0 -151.5 -25.5t-102.5 -89.5l-101 92q43 56 95 89.5t115.5 47t146.5 13.5q104 0 179 -21.5t125 -64t74.5 -104t24.5 -146.5v-684h-147v96q-61 -61 -126 -84.5t-165 -23.5q-102 0 -170 21.5 t-115 70.5q-76 76 -76 205zM207 1321q0 39 27.5 66.5t64.5 27.5q39 0 65.5 -27.5t26.5 -66.5q0 -38 -26 -65t-66 -27q-38 0 -65 27t-27 65zM248 287q0 -87 56 -129.5t175 -42.5q76 0 129 12.5t97 54.5q51 49 51 174v109h-283q-225 0 -225 -178zM641 1321q0 39 27.5 66.5 t64.5 27.5q39 0 65.5 -27.5t26.5 -66.5q0 -38 -26 -65t-66 -27q-38 0 -65 27t-27 65z" />
<glyph unicode="&#xe5;" horiz-adv-x="1077" d="M104 285q0 135 90.5 212.5t258.5 77.5h303v97q0 113 -60.5 167t-197.5 54q-95 0 -151.5 -25.5t-102.5 -89.5l-101 92q43 56 95 89.5t115.5 47t146.5 13.5q104 0 179 -21.5t125 -64t74.5 -104t24.5 -146.5v-684h-147v96q-61 -61 -126 -84.5t-165 -23.5q-102 0 -170 21.5 t-115 70.5q-76 76 -76 205zM248 287q0 -87 56 -129.5t175 -42.5q76 0 129 12.5t97 54.5q51 49 51 174v109h-283q-225 0 -225 -178zM274 1407q0 100 71 171t171 71q65 0 121 -32t88.5 -87.5t32.5 -122.5q0 -65 -33 -121.5t-88 -89.5t-121 -33t-121 33t-88 89.5t-33 121.5z M375 1407q0 -57 42 -99t99 -42t99 42t42 99q0 58 -41.5 98.5t-99.5 40.5t-99.5 -40.5t-41.5 -98.5z" />
<glyph unicode="&#xe6;" horiz-adv-x="1710" d="M104 285q0 135 90.5 212.5t258.5 77.5h303v97q0 113 -60.5 167t-197.5 54q-95 0 -151.5 -25.5t-102.5 -89.5l-101 92q43 56 95 89.5t115.5 47t146.5 13.5q138 0 226 -39.5t128 -118.5q107 158 315 158q96 0 174 -33.5t131.5 -97.5t81 -153t27.5 -204v-67h-682 q0 -109 34.5 -187.5t102 -119.5t162.5 -41q83 0 140.5 26t121.5 88l103 -88q-51 -51 -105.5 -86t-120 -52t-147.5 -17q-251 0 -358 174q-47 -65 -99 -103.5t-117 -54.5t-153 -16q-102 0 -170 21.5t-115 70.5q-76 76 -76 205zM248 287q0 -87 56 -129.5t175 -42.5 q76 0 129 12.5t97 54.5q51 49 51 174v109h-283q-225 0 -225 -178zM901 575h535q-5 103 -31 168q-28 70 -92 111t-144 41q-78 0 -141.5 -40.5t-93.5 -111.5q-18 -44 -24 -79t-9 -89z" />
<glyph unicode="&#xe7;" horiz-adv-x="1012" d="M129 504q0 166 58 283t159 175t229 58q107 0 181.5 -33.5t150.5 -116.5l-100 -94q-56 62 -107 87.5t-125 25.5q-153 0 -233 -115q-35 -49 -50.5 -112.5t-15.5 -157.5q0 -93 15.5 -156.5t50.5 -114.5q81 -114 233 -114q72 0 122.5 25.5t109.5 88.5l100 -96 q-76 -82 -151 -115.5t-181 -33.5q-94 0 -176.5 33t-142.5 97.5t-93.5 162t-33.5 223.5zM358 -442l146 305h137l-121 -305h-162z" />
<glyph unicode="&#xe8;" d="M129 504q0 122 28.5 217t82.5 162t131 102t172 35q128 0 222 -59.5t142.5 -170.5t48.5 -258v-67h-680q0 -166 77.5 -257t219.5 -91q84 0 143 26t122 88l100 -88q-82 -82 -163.5 -118.5t-205.5 -36.5q-133 0 -232.5 55t-153.5 171t-54 290zM276 575h533q-5 106 -31 168 q-28 69 -92.5 110.5t-142.5 41.5q-79 0 -142.5 -40.5t-93.5 -111.5q-24 -61 -31 -168zM293 1530h176l180 -313h-135z" />
<glyph unicode="&#xe9;" d="M129 504q0 122 28.5 217t82.5 162t131 102t172 35q128 0 222 -59.5t142.5 -170.5t48.5 -258v-67h-680q0 -166 77.5 -257t219.5 -91q84 0 143 26t122 88l100 -88q-82 -82 -163.5 -118.5t-205.5 -36.5q-133 0 -232.5 55t-153.5 171t-54 290zM276 575h533q-5 106 -31 168 q-28 69 -92.5 110.5t-142.5 41.5q-79 0 -142.5 -40.5t-93.5 -111.5q-24 -61 -31 -168zM449 1217l180 313h176l-221 -313h-135z" />
<glyph unicode="&#xea;" d="M129 504q0 122 28.5 217t82.5 162t131 102t172 35q128 0 222 -59.5t142.5 -170.5t48.5 -258v-67h-680q0 -166 77.5 -257t219.5 -91q84 0 143 26t122 88l100 -88q-82 -82 -163.5 -118.5t-205.5 -36.5q-133 0 -232.5 55t-153.5 171t-54 290zM223 1217l256 313h140l256 -313 h-142l-184 213l-184 -213h-142zM276 575h533q-5 106 -31 168q-28 69 -92.5 110.5t-142.5 41.5q-79 0 -142.5 -40.5t-93.5 -111.5q-24 -61 -31 -168z" />
<glyph unicode="&#xeb;" d="M129 504q0 122 28.5 217t82.5 162t131 102t172 35q128 0 222 -59.5t142.5 -170.5t48.5 -258v-67h-680q0 -166 77.5 -257t219.5 -91q84 0 143 26t122 88l100 -88q-82 -82 -163.5 -118.5t-205.5 -36.5q-133 0 -232.5 55t-153.5 171t-54 290zM240 1321q0 39 27.5 66.5 t64.5 27.5q39 0 65.5 -27.5t26.5 -66.5q0 -38 -26 -65t-66 -27q-38 0 -65 27t-27 65zM276 575h533q-5 106 -31 168q-28 69 -92.5 110.5t-142.5 41.5q-79 0 -142.5 -40.5t-93.5 -111.5q-24 -61 -31 -168zM674 1321q0 39 27.5 66.5t64.5 27.5q39 0 65.5 -27.5t26.5 -66.5 q0 -38 -26 -65t-66 -27q-38 0 -65 27t-27 65z" />
<glyph unicode="&#xec;" horiz-adv-x="518" d="M37 1530h176l180 -313h-135zM184 0v1008h148v-1008h-148z" />
<glyph unicode="&#xed;" horiz-adv-x="518" d="M136 1217l180 313h176l-221 -313h-135zM184 0v1008h148v-1008h-148z" />
<glyph unicode="&#xee;" horiz-adv-x="518" d="M-68 1217l256 313h140l256 -313h-142l-184 213l-184 -213h-142zM184 0v1008h148v-1008h-148z" />
<glyph unicode="&#xef;" horiz-adv-x="518" d="M-55 1321q0 39 27.5 66.5t64.5 27.5q39 0 65.5 -27.5t26.5 -66.5q0 -38 -26 -65t-66 -27q-38 0 -65 27t-27 65zM184 0v1008h148v-1008h-148zM379 1321q0 39 27.5 66.5t64.5 27.5q39 0 65.5 -27.5t26.5 -66.5q0 -38 -26 -65t-66 -27q-38 0 -65 27t-27 65z" />
<glyph unicode="&#xf0;" d="M135 500q0 88 10 157.5t35.5 130.5t75.5 111q92 96 250 107q108 0 153 -21l-118 203h-238v106h180l-96 168h154l96 -168h168v-106h-111l129 -227q80 -137 104.5 -229.5t24.5 -231.5q0 -132 -26 -230.5t-97 -169.5q-109 -112 -286 -112t-287 112q-49 49 -75 111t-36 132 t-10 157zM283 500q0 -104 15 -180.5t64 -126.5q74 -74 181 -74q110 0 182 74q50 50 65 123.5t15 183.5t-15 184.5t-65 124.5q-74 74 -182 74q-105 0 -181 -74q-49 -50 -64 -127.5t-15 -181.5z" />
<glyph unicode="&#xf1;" horiz-adv-x="1153" d="M184 0v1008h148v-111q55 62 125 92.5t157 30.5q164 0 258 -94q105 -102 105 -281v-645h-148v621q0 66 -18 118t-48.5 84t-75.5 49t-105 17q-116 0 -183 -69.5t-67 -198.5v-621h-148zM254 1343q63 64 106.5 84.5t88.5 20.5q43 0 74.5 -12t70.5 -37q65 -41 115 -41 q55 0 121 65l76 -73q-105 -105 -195 -105q-38 0 -69 11t-76 36q-73 43 -115 43q-29 0 -54 -11.5t-67 -53.5z" />
<glyph unicode="&#xf2;" d="M131 504q0 133 26 230.5t97 170.5q115 115 289 115q175 0 288 -115q71 -71 97 -169.5t26 -231.5q0 -88 -9.5 -156.5t-37 -132t-76.5 -113.5q-114 -114 -288 -114q-173 0 -289 114q-49 50 -76 112t-37 132t-10 158zM266 1530h176l180 -313h-135zM279 504q0 -106 15.5 -183 t65.5 -128q74 -74 183 -74q112 0 184 74q50 50 65 125t15 186q0 110 -15.5 186t-64.5 125q-74 74 -184 74q-107 0 -183 -74q-50 -51 -65.5 -128.5t-15.5 -182.5z" />
<glyph unicode="&#xf3;" d="M131 504q0 133 26 230.5t97 170.5q115 115 289 115q175 0 288 -115q71 -71 97 -169.5t26 -231.5q0 -88 -9.5 -156.5t-37 -132t-76.5 -113.5q-114 -114 -288 -114q-173 0 -289 114q-49 50 -76 112t-37 132t-10 158zM279 504q0 -106 15.5 -183t65.5 -128q74 -74 183 -74 q112 0 184 74q50 50 65 125t15 186q0 110 -15.5 186t-64.5 125q-74 74 -184 74q-107 0 -183 -74q-50 -51 -65.5 -128.5t-15.5 -182.5zM443 1217l180 313h176l-221 -313h-135z" />
<glyph unicode="&#xf4;" d="M131 504q0 133 26 230.5t97 170.5q115 115 289 115q175 0 288 -115q71 -71 97 -169.5t26 -231.5q0 -88 -9.5 -156.5t-37 -132t-76.5 -113.5q-114 -114 -288 -114q-173 0 -289 114q-49 50 -76 112t-37 132t-10 158zM217 1217l256 313h140l256 -313h-142l-184 213 l-184 -213h-142zM279 504q0 -106 15.5 -183t65.5 -128q74 -74 183 -74q112 0 184 74q50 50 65 125t15 186q0 110 -15.5 186t-64.5 125q-74 74 -184 74q-107 0 -183 -74q-50 -51 -65.5 -128.5t-15.5 -182.5z" />
<glyph unicode="&#xf5;" d="M131 504q0 133 26 230.5t97 170.5q115 115 289 115q175 0 288 -115q71 -71 97 -169.5t26 -231.5q0 -88 -9.5 -156.5t-37 -132t-76.5 -113.5q-114 -114 -288 -114q-173 0 -289 114q-49 50 -76 112t-37 132t-10 158zM213 1343q63 64 106.5 84.5t88.5 20.5q43 0 74.5 -12 t70.5 -37q65 -41 115 -41q55 0 121 65l76 -73q-105 -105 -195 -105q-38 0 -69 11t-76 36q-73 43 -115 43q-29 0 -54 -11.5t-67 -53.5zM279 504q0 -106 15.5 -183t65.5 -128q74 -74 183 -74q112 0 184 74q50 50 65 125t15 186q0 110 -15.5 186t-64.5 125q-74 74 -184 74 q-107 0 -183 -74q-50 -51 -65.5 -128.5t-15.5 -182.5z" />
<glyph unicode="&#xf6;" d="M131 504q0 133 26 230.5t97 170.5q115 115 289 115q175 0 288 -115q71 -71 97 -169.5t26 -231.5q0 -88 -9.5 -156.5t-37 -132t-76.5 -113.5q-114 -114 -288 -114q-173 0 -289 114q-49 50 -76 112t-37 132t-10 158zM234 1321q0 39 27.5 66.5t64.5 27.5q39 0 65.5 -27.5 t26.5 -66.5q0 -38 -26 -65t-66 -27q-38 0 -65 27t-27 65zM279 504q0 -106 15.5 -183t65.5 -128q74 -74 183 -74q112 0 184 74q50 50 65 125t15 186q0 110 -15.5 186t-64.5 125q-74 74 -184 74q-107 0 -183 -74q-50 -51 -65.5 -128.5t-15.5 -182.5zM668 1321q0 39 27.5 66.5 t64.5 27.5q39 0 65.5 -27.5t26.5 -66.5q0 -38 -26 -65t-66 -27q-38 0 -65 27t-27 65z" />
<glyph unicode="&#xf7;" horiz-adv-x="1069" d="M104 483v138h861v-138h-861zM418 184q0 48 34.5 82.5t82.5 34.5q49 0 82.5 -34.5t33.5 -82.5q0 -46 -34 -81t-82 -35q-47 0 -82 35t-35 81zM418 920q0 48 35 82t82 34q31 0 57.5 -16t42.5 -42.5t16 -57.5q0 -47 -34 -82t-82 -35q-47 0 -82 35t-35 82z" />
<glyph unicode="&#xf8;" d="M131 504q0 133 26 230.5t97 170.5q115 115 289 115q118 0 215 -55l80 133h114l-116 -197q69 -72 93.5 -169.5t24.5 -227.5q0 -88 -9.5 -156.5t-37 -132t-76.5 -113.5q-114 -114 -288 -114q-122 0 -215 55l-78 -133h-117l117 196q-47 48 -73.5 111t-36 131t-9.5 156z M279 504q0 -85 10 -153.5t41 -119.5l360 615q-63 43 -147 43q-107 0 -183 -74q-50 -51 -65.5 -128.5t-15.5 -182.5zM395 164q64 -45 148 -45q112 0 184 74q50 50 65 125t15 186q0 191 -49 272z" />
<glyph unicode="&#xf9;" horiz-adv-x="1151" d="M174 365v643h148v-621q0 -130 65 -199t180 -69q117 0 184.5 69.5t67.5 198.5v621h148v-1008h-146v113q-52 -61 -126 -93t-158 -32q-167 0 -261 94q-52 52 -77 123t-25 160zM313 1530h176l180 -313h-135z" />
<glyph unicode="&#xfa;" horiz-adv-x="1151" d="M174 365v643h148v-621q0 -130 65 -199t180 -69q117 0 184.5 69.5t67.5 198.5v621h148v-1008h-146v113q-52 -61 -126 -93t-158 -32q-167 0 -261 94q-52 52 -77 123t-25 160zM469 1217l180 313h176l-221 -313h-135z" />
<glyph unicode="&#xfb;" horiz-adv-x="1151" d="M174 365v643h148v-621q0 -130 65 -199t180 -69q117 0 184.5 69.5t67.5 198.5v621h148v-1008h-146v113q-52 -61 -126 -93t-158 -32q-167 0 -261 94q-52 52 -77 123t-25 160zM243 1217l256 313h140l256 -313h-142l-184 213l-184 -213h-142z" />
<glyph unicode="&#xfc;" horiz-adv-x="1151" d="M174 365v643h148v-621q0 -130 65 -199t180 -69q117 0 184.5 69.5t67.5 198.5v621h148v-1008h-146v113q-52 -61 -126 -93t-158 -32q-167 0 -261 94q-52 52 -77 123t-25 160zM260 1321q0 39 27.5 66.5t64.5 27.5q39 0 65.5 -27.5t26.5 -66.5q0 -38 -26 -65t-66 -27 q-38 0 -65 27t-27 65zM694 1321q0 39 27.5 66.5t64.5 27.5q39 0 65.5 -27.5t26.5 -66.5q0 -38 -26 -65t-66 -27q-38 0 -65 27t-27 65z" />
<glyph unicode="&#xfd;" horiz-adv-x="915" d="M23 1008h159l277 -809l274 809h160l-459 -1252q-29 -79 -72 -118q-71 -70 -196 -70h-64v131h45q75 0 108 27t58 98l72 196zM357 1217l180 313h176l-221 -313h-135z" />
<glyph unicode="&#xfe;" horiz-adv-x="1118" d="M184 -451v1909h148v-567q57 73 125 101t159 28q75 0 141 -23.5t105 -64.5q70 -68 96.5 -178.5t26.5 -249.5t-26.5 -249.5t-96.5 -178.5q-39 -39 -105 -63.5t-141 -24.5q-59 0 -107 11.5t-93.5 41t-83.5 78.5v-570h-148zM332 504q0 -177 52 -281t202 -104t201 103t51 282 q0 178 -51 281.5t-201 103.5q-149 0 -201.5 -104.5t-52.5 -280.5z" />
<glyph unicode="&#xff;" horiz-adv-x="915" d="M23 1008h159l277 -809l274 809h160l-459 -1252q-29 -79 -72 -118q-71 -70 -196 -70h-64v131h45q75 0 108 27t58 98l72 196zM148 1321q0 39 27.5 66.5t64.5 27.5q39 0 65.5 -27.5t26.5 -66.5q0 -38 -26 -65t-66 -27q-38 0 -65 27t-27 65zM582 1321q0 39 27.5 66.5 t64.5 27.5q39 0 65.5 -27.5t26.5 -66.5q0 -38 -26 -65t-66 -27q-38 0 -65 27t-27 65z" />
<glyph unicode="&#x152;" horiz-adv-x="2025" d="M156 729q0 187 7 279.5t36 169t94 141.5q151 151 371 151q110 0 198.5 -40.5t155.5 -122.5v151h889v-137h-733q0 -111 0.5 -186l1 -150t0.5 -184h622v-131h-622q0 -174 -0.5 -287t-1.5 -246h737v-137h-893v152q-66 -80 -158 -122t-196 -42q-220 0 -371 151 q-50 52 -77.5 106.5t-40.5 123.5t-16 142.5t-3 217.5zM311 729q0 -237 18 -332.5t85 -165.5q49 -49 114.5 -76.5t137.5 -27.5q71 0 137 27.5t115 76.5q46 48 66.5 103.5t27 143t6.5 251.5t-6.5 251.5t-27.5 144.5t-66 102q-49 50 -115 77t-137 27q-72 0 -137.5 -26.5 t-114.5 -77.5q-67 -69 -85 -164.5t-18 -333.5z" />
<glyph unicode="&#x153;" horiz-adv-x="1763" d="M131 504q0 133 26 230.5t97 170.5q115 115 289 115q75 0 141.5 -23t119.5 -68t83 -104q103 195 334 195q128 0 222 -59.5t142.5 -170.5t48.5 -258v-67h-680q0 -166 77.5 -257t219.5 -91q84 0 143 26t122 88l100 -88q-53 -53 -105.5 -87t-116.5 -51t-147 -17 q-255 0 -362 194q-48 -92 -138.5 -143t-203.5 -51q-173 0 -289 114q-49 50 -76 112t-37 132t-10 158zM279 504q0 -106 15.5 -183t65.5 -128q74 -74 183 -74q112 0 184 74q50 50 65 125t15 186q0 110 -15.5 186t-64.5 125q-74 74 -184 74q-107 0 -183 -74 q-50 -51 -65.5 -128.5t-15.5 -182.5zM954 575h535q-3 65 -9.5 97.5t-23.5 70.5q-28 69 -92.5 110.5t-142.5 41.5q-79 0 -142.5 -40.5t-93.5 -111.5q-26 -65 -31 -168z" />
<glyph unicode="&#x178;" horiz-adv-x="1053" d="M16 1458h168l344 -698l340 698h168l-430 -856v-602h-155v602zM217 1704q0 39 27.5 66.5t64.5 27.5q39 0 65.5 -27.5t26.5 -66.5q0 -38 -26 -65t-66 -27q-38 0 -65 27t-27 65zM651 1704q0 39 27.5 66.5t64.5 27.5q39 0 65.5 -27.5t26.5 -66.5q0 -38 -26 -65t-66 -27 q-38 0 -65 27t-27 65z" />
<glyph unicode="&#x2c6;" horiz-adv-x="1024" d="M186 1217l256 313h140l256 -313h-142l-184 213l-184 -213h-142z" />
<glyph unicode="&#x2dc;" horiz-adv-x="1024" d="M182 1343q63 64 106.5 84.5t88.5 20.5q43 0 74.5 -12t70.5 -37q65 -41 115 -41q55 0 121 65l76 -73q-105 -105 -195 -105q-38 0 -69 11t-76 36q-73 43 -115 43q-29 0 -54 -11.5t-67 -53.5z" />
<glyph unicode="&#x2000;" horiz-adv-x="1009" />
<glyph unicode="&#x2001;" horiz-adv-x="2018" />
<glyph unicode="&#x2002;" horiz-adv-x="1009" />
<glyph unicode="&#x2003;" horiz-adv-x="2018" />
<glyph unicode="&#x2004;" horiz-adv-x="672" />
<glyph unicode="&#x2005;" horiz-adv-x="504" />
<glyph unicode="&#x2006;" horiz-adv-x="336" />
<glyph unicode="&#x2007;" horiz-adv-x="336" />
<glyph unicode="&#x2008;" horiz-adv-x="252" />
<glyph unicode="&#x2009;" horiz-adv-x="403" />
<glyph unicode="&#x200a;" horiz-adv-x="112" />
<glyph unicode="&#x2010;" horiz-adv-x="872" d="M156 483v138h561v-138h-561z" />
<glyph unicode="&#x2011;" horiz-adv-x="872" d="M156 483v138h561v-138h-561z" />
<glyph unicode="&#x2012;" horiz-adv-x="872" d="M156 483v138h561v-138h-561z" />
<glyph unicode="&#x2013;" horiz-adv-x="1069" d="M106 483v138h857v-138h-857z" />
<glyph unicode="&#x2014;" horiz-adv-x="1872" d="M156 483v140h1560v-140h-1560z" />
<glyph unicode="&#x2018;" horiz-adv-x="539" d="M180 1286v172l178 162v-334h-178z" />
<glyph unicode="&#x2019;" horiz-adv-x="539" d="M180 1124v334h178v-172z" />
<glyph unicode="&#x201a;" horiz-adv-x="539" d="M180 -162v334h178v-172z" />
<glyph unicode="&#x201c;" horiz-adv-x="889" d="M180 1286v172l178 162v-334h-178zM528 1286v172l181 162v-334h-181z" />
<glyph unicode="&#x201d;" horiz-adv-x="889" d="M180 1124v334h178v-172zM528 1124v334h181v-172z" />
<glyph unicode="&#x201e;" horiz-adv-x="889" d="M180 -162v334h178v-172zM528 -162v334h181v-172z" />
<glyph unicode="&#x2022;" horiz-adv-x="1090" d="M211 684q0 90 45 167.5t122.5 122t166.5 44.5q69 0 130.5 -26t106.5 -71t71 -106.5t26 -130.5t-26 -129.5t-71.5 -106t-108 -72t-128.5 -26.5q-138 0 -236 98t-98 236z" />
<glyph unicode="&#x2026;" horiz-adv-x="1550" d="M162 111q0 48 35 82t82 34q31 0 57.5 -16t42.5 -42.5t16 -57.5q0 -47 -34 -82t-82 -35q-47 0 -82 35t-35 82zM657 111q0 47 34.5 81.5t82.5 34.5t82.5 -33.5t34.5 -82.5q0 -48 -34.5 -82.5t-82.5 -34.5t-82.5 35.5t-34.5 81.5zM1153 111q0 48 35 82t82 34q31 0 57.5 -16 t42.5 -42.5t16 -57.5q0 -47 -34 -82t-82 -35q-47 0 -82 35t-35 82z" />
<glyph unicode="&#x202f;" horiz-adv-x="403" />
<glyph unicode="&#x2039;" horiz-adv-x="672" d="M82 549l430 430v-184l-246 -246l246 -248v-182z" />
<glyph unicode="&#x203a;" horiz-adv-x="672" d="M160 119v182l248 248l-248 246v184l430 -430z" />
<glyph unicode="&#x205f;" horiz-adv-x="504" />
<glyph unicode="&#x2122;" horiz-adv-x="1718" d="M74 1350v108h604v-108h-244v-766h-119v766h-241zM831 584v874h119l267 -530l266 530h116v-874h-116v630l-209 -413h-115l-209 413v-630h-119z" />
<glyph unicode="&#xe000;" horiz-adv-x="1010" d="M0 0v1010h1010v-1010h-1010z" />
<glyph unicode="&#xfb01;" horiz-adv-x="1147" d="M82 889v112h129v191q0 117 67 193.5t191 76.5h106v-127h-79q-138 0 -138 -147v-187h217v-112h-217v-889h-147v889h-129zM786 1386q0 42 30.5 71.5t72.5 29.5q20 0 39.5 -8t32 -21.5t20.5 -32.5t8 -39q0 -27 -13.5 -50t-36.5 -36.5t-50 -13.5q-41 0 -72 30t-31 70zM815 0 v1001h148v-1001h-148z" />
<glyph unicode="&#xfb02;" horiz-adv-x="1233" d="M86 889v112h129v191q0 118 66 194t190 76h107v-127h-80q-136 0 -136 -147v-187h216v-112h-216v-889h-147v889h-129zM809 268v1190h147v-1184q0 -77 31 -112t105 -35h82v-127h-107q-85 0 -143 34.5t-86.5 95t-28.5 138.5z" />
</font>
</defs>
</svg>
